<?xml version="1.0" encoding="utf-8"?>
<!-- Generator: Adobe Illustrator 23.0.1, SVG Export Plug-In . SVG Version: 6.00 Build 0)  -->
<svg version="1.1" id="Layer_1" xmlns="http://www.w3.org/2000/svg" xmlns:xlink="http://www.w3.org/1999/xlink" x="0px" y="0px"
	 viewBox="0 0 40 38" style="enable-background:new 0 0 40 38;" xml:space="preserve">
<g>
	<defs>
		<path id="SVGID_1_" d="M29.5,18.6c0.5,0,1,0.2,1.5,0.4c0.4-0.3,0.9-0.4,1.5-0.4c1.5,0,2.8,1.2,2.8,2.8c0,1.5-1.2,2.8-2.8,2.8
			c-0.5,0-1-0.2-1.5-0.4c-0.4,0.3-0.9,0.4-1.5,0.4c-1.5,0-2.8-1.2-2.8-2.8C26.7,19.8,28,18.6,29.5,18.6z M10.4,31.2h25.7v2H10.4
			V31.2z M8.8,15.7C8.8,15.7,8.8,15.7,8.8,15.7l-0.1,0v0l0,0l0,0l0,0l0,0l0,0v0l0,0l0,0l0,0l0,0l0,0l0,0l0,0l0,0l0,0l0,0l0,0v0l0,0
			l0,0v0l0,0l0,0l0,0l0,0l0,0l0,0l0,0l0,0l0,0l0,0l0,0l0,0v0l0,0v0l0,0l0,0l0,0l0,0l0,0h0c-0.1,0.1-0.2,0.2-0.2,0.4v0l0,0v0l0,0v0
			l0,0v0l0,0v0l0,0v0v19.1c0,0.3,0.3,0.6,0.6,0.6h28.5c0.3,0,0.6-0.3,0.6-0.6V16.3c0-0.3-0.3-0.6-0.6-0.6
			C27.8,15.7,18.3,15.7,8.8,15.7z M35.9,13.6h1.4c1.5,0,2.7,1.2,2.7,2.7v19.1c0,1.5-1.2,2.7-2.7,2.7H8.8c-1.5,0-2.7-1.2-2.7-2.7
			v-3.1c-0.2-0.3-0.4-0.6-0.5-1L0.1,10.7C-0.3,9.3,0.6,7.8,2,7.4l27.5-7.3c1.4-0.4,2.9,0.5,3.3,1.9L35.9,13.6z M2.4,11.3l28.7-7.6
			l-0.3-1.1c-0.1-0.3-0.4-0.5-0.7-0.4L2.5,9.4C2.2,9.5,2,9.8,2.1,10.1L2.4,11.3z M32.1,7.2L3.4,14.8l2.8,10.3v-8.9l0,0l0,0l0,0v0
			l0,0v0l0-0.1v0l0,0v0c0.1-0.6,0.3-1.2,0.8-1.6l0,0l0,0l0,0v0l0,0l0,0v0l0,0l0,0v0l0,0l0,0l0,0l0,0v0l0,0v0l0,0l0,0l0,0v0l0,0l0,0
			l0,0l0.1,0c0,0,0.1,0,0.1,0l0,0v0l0,0l0,0v0l0.1,0l0,0l0,0l0,0l0,0v0l0,0l0.1,0v0c0.3-0.1,0.6-0.2,1-0.2h25L32.1,7.2z M12.6,23
			h5.2c0.5,0,0.9,0.4,0.9,0.9v2.6c0,0.5-0.4,0.9-0.9,0.9h-5.2c-0.5,0-0.9-0.4-0.9-0.9v-2.6C11.7,23.4,12.1,23,12.6,23z"/>
	</defs>
	<use xlink:href="#SVGID_1_"  style="overflow:visible;fill-rule:evenodd;clip-rule:evenodd;"/>
	<clipPath id="SVGID_2_">
		<use xlink:href="#SVGID_1_"  style="overflow:visible;"/>
	</clipPath>
</g>
</svg>
