<?xml version="1.0" encoding="utf-8"?>
<!-- Generator: Adobe Illustrator 23.0.1, SVG Export Plug-In . SVG Version: 6.00 Build 0)  -->
<svg version="1.1" id="Layer_1" xmlns="http://www.w3.org/2000/svg" xmlns:xlink="http://www.w3.org/1999/xlink" x="0px" y="0px"
	 viewBox="0 0 100 125" style="enable-background:new 0 0 100 125;" xml:space="preserve">
<g>
	<g>
		<path d="M41.6,69.1c-0.9,0-1.8-0.2-2.7-0.7L8.7,52.5c-1.8-0.9-2.9-2.7-3-4.7s0.8-3.9,2.5-5l47.2-32.5c1.8-1.2,4-1.3,5.9-0.4
			l30.2,15.9c1.8,0.9,2.9,2.7,3,4.7s-0.8,3.9-2.5,5L73.9,47.4c-0.9,0.6-2.2,0.3-2.8-0.6c-0.6-0.9-0.3-2.2,0.6-2.8l18.1-11.8
			c0.7-0.5,0.7-1.2,0.7-1.5c0-0.3-0.1-1-0.9-1.4L59.3,13.4c-0.6-0.3-1.2-0.3-1.8,0.1L10.4,46.1c-0.7,0.5-0.8,1.2-0.7,1.5
			c0,0.3,0.1,1,0.9,1.4l30.2,15.9c0.6,0.3,1.2,0.3,1.8-0.1l15-10.7c0.9-0.6,2.2-0.4,2.8,0.5s0.4,2.2-0.5,2.8L44.8,68.1
			C43.9,68.7,42.7,69.1,41.6,69.1z"/>
	</g>
	<g>
		<path d="M41.6,76.3c-0.9,0-1.8-0.2-2.7-0.7l-34-17.9c-1-0.5-1.6-1.5-1.7-2.6s0.3-2.2,1.2-2.8l4-3.2c0.9-0.7,2.1-0.6,2.8,0.3
			c0.7,0.9,0.6,2.1-0.3,2.8l-3.1,2.5l33,17.3c0.6,0.3,1.2,0.3,1.8-0.1l15.2-11.1c0.9-0.7,2.1-0.5,2.8,0.4c0.7,0.9,0.5,2.1-0.4,2.8
			L44.9,75.3C43.9,76,42.7,76.3,41.6,76.3z"/>
	</g>
	<g>
		<path d="M73.4,55.2c-0.6,0-1.3-0.3-1.7-0.9c-0.6-0.9-0.4-2.2,0.5-2.8l19.9-13.7l-2.3-1.3c-1-0.5-1.3-1.8-0.8-2.7
			c0.5-1,1.8-1.3,2.7-0.8l3.1,1.7c1.1,0.6,1.7,1.7,1.8,2.9c0.1,1.2-0.5,2.3-1.5,3L74.5,54.9C74.2,55.1,73.8,55.2,73.4,55.2z
			 M92.9,38.2L92.9,38.2L92.9,38.2z"/>
	</g>
	<g>
		<path d="M41.6,83.6c-0.9,0-1.8-0.2-2.7-0.7L5.1,65.1c-1-0.5-1.7-1.5-1.8-2.6c-0.2-1.1,0.2-2.2,1-3l3.2-3.3c0.8-0.8,2-0.8,2.8,0
			s0.8,2,0,2.8l-2.8,2.9l33.3,17.5c0.6,0.3,1.2,0.3,1.8-0.1l15.1-10.3c0.9-0.6,2.2-0.4,2.8,0.5c0.6,0.9,0.4,2.2-0.5,2.8L44.8,82.6
			C43.8,83.2,42.7,83.6,41.6,83.6z"/>
	</g>
	<g>
		<path d="M73.4,62.4c-0.6,0-1.3-0.3-1.7-0.9c-0.6-0.9-0.4-2.2,0.5-2.8l20.4-14.1l-1.4-1.2c-0.8-0.7-0.9-2-0.2-2.8
			c0.7-0.8,2-1,2.8-0.2l2,1.7c0.8,0.7,1.3,1.7,1.2,2.8c-0.1,1.1-0.6,2.1-1.5,2.7l-21,14.5C74.2,62.3,73.8,62.4,73.4,62.4z"/>
	</g>
	<g>
		<path d="M41.6,90.8c-0.9,0-1.8-0.2-2.7-0.7l-34-17.9c-0.9-0.5-1.6-1.4-1.8-2.4c-0.2-1,0-2.1,0.7-2.9l2.9-3.7
			c0.7-0.9,1.9-1,2.8-0.3c0.9,0.7,1,1.9,0.3,2.8l-2.5,3.2l33.5,17.7c0.6,0.3,1.2,0.3,1.8-0.1l20.9-14.4c0.9-0.6,2.2-0.4,2.8,0.5
			s0.4,2.2-0.5,2.8L44.8,89.8C43.8,90.4,42.7,90.8,41.6,90.8z"/>
	</g>
	<g>
		<path d="M73.1,69.1c-0.7,0-1.3-0.3-1.7-0.9c-0.6-0.9-0.3-2.2,0.6-2.8L92.4,52c0,0,0.1,0,0.1-0.1c0-0.1,0-0.1-0.1-0.1l-1.2-1.1
			c-0.8-0.7-0.9-2-0.2-2.8s2-0.9,2.8-0.2l1.2,1.1c1,0.9,1.5,2.1,1.4,3.4c-0.1,1.3-0.8,2.5-1.9,3.2L74.2,68.8
			C73.9,69,73.5,69.1,73.1,69.1z"/>
	</g>
	<g>
		<path d="M62.5,76.4c-0.9,0-1.8-0.2-2.7-0.7c-1.9-1-3-3-3-5.1L57,57c0-0.6-0.3-1.2-0.8-1.5L22.9,36.1c-1-0.6-1.3-1.8-0.7-2.7
			c0.6-1,1.8-1.3,2.7-0.7l33.3,19.4c1.8,1,2.9,3,2.8,5l-0.2,13.6c0,0.9,0.6,1.4,0.9,1.5c0.3,0.2,1,0.4,1.8-0.1l7.1-4.9
			c0.5-0.3,0.7-0.8,0.7-1.4V47.7c0-0.6-0.3-1.2-0.8-1.5L37.3,26.1c-0.9-0.6-1.2-1.8-0.7-2.8c0.6-0.9,1.8-1.2,2.8-0.7l33.3,20.1
			c1.7,1,2.8,2.9,2.8,4.9v18.1c0,1.9-0.9,3.6-2.5,4.7l-7.1,4.9C64.8,76,63.7,76.4,62.5,76.4z"/>
	</g>
</g>
</svg>
