<?xml version="1.0" encoding="utf-8"?>
<!-- Generator: Adobe Illustrator 23.0.1, SVG Export Plug-In . SVG Version: 6.00 Build 0)  -->
<svg version="1.1" id="Layer_1" xmlns="http://www.w3.org/2000/svg" xmlns:xlink="http://www.w3.org/1999/xlink" x="0px" y="0px"
	 viewBox="0 0 56 68" style="enable-background:new 0 0 56 68;" xml:space="preserve">
<g>
	<defs>
		<path id="SVGID_1_" d="M46,10v4H22v-4H46z M8,4C5.9,4,4.1,5.7,4,7.8L4,8v13h8V8C12,5.8,10.2,4,8,4z M37,19v4H22v-4H37z M42,28v4
			H22v-4H42z M48,3.9H15V4c0.1,0.2,0.2,0.4,0.3,0.6l0.1,0.2v0.1c0.1,0.3,0.2,0.5,0.3,0.8c0.1,0.1,0.1,0.2,0.1,0.3
			c0,0.2,0.1,0.4,0.1,0.5l0,0.2V7C16,7.2,16,7.5,16,7.8L16,8v52.9l4.7-2.2l6.5,4l6.7-4.1l6.7,4l6.5-3.9l4.9,2.2v-53
			C52,5.7,50.2,3.9,48,3.9z M48,0c4.3,0,7.9,3.4,8,7.7L56,8v59l-8.6-3.9l-6.8,4.1l-6.6-4l-6.7,4.1l-6.8-4.1l-8.5,4V25H0V8
			c0-4.3,3.5-7.9,7.8-8L8,0H48z"/>
	</defs>
	<use xlink:href="#SVGID_1_"  style="overflow:visible;"/>
	<clipPath id="SVGID_2_">
		<use xlink:href="#SVGID_1_"  style="overflow:visible;"/>
	</clipPath>
</g>
</svg>
