<?xml version="1.0" encoding="utf-8"?>
<!-- Generator: Adobe Illustrator 23.0.1, SVG Export Plug-In . SVG Version: 6.00 Build 0)  -->
<svg version="1.1" id="Layer_1" xmlns="http://www.w3.org/2000/svg" xmlns:xlink="http://www.w3.org/1999/xlink" x="0px" y="0px"
	 viewBox="0 0 40 45" style="enable-background:new 0 0 40 45;" xml:space="preserve">
<style type="text/css">
	.st0{fill-rule:evenodd;clip-rule:evenodd;}
</style>
<g>
	<g transform="translate(-25.000000, -11.000000)">
		<g>
			<g transform="translate(21.000000, 6.000000)">
				<g transform="translate(4.000000, 5.000000)">
					<path class="st0" d="M23,27.7v-4.1h2v4.1c0,1.9-1.5,3.4-3.4,3.4H11.6c-0.1,0-0.1,0-0.1,0l-5.8,4.3c-0.1,0-0.1,0.1-0.2,0.1
						c-0.2,0-0.3-0.1-0.3-0.3v-3.9c0-0.1-0.1-0.3-0.3-0.3H3.4c-1.9,0-3.4-1.5-3.4-3.4V16.3c0-1.9,1.5-3.4,3.4-3.4h4.8v2H3.4
						c-0.8,0-1.4,0.6-1.4,1.4v11.5c0,0.8,0.6,1.4,1.4,1.4H5h0.1l0.1,0c1.2,0.1,2.1,1.1,2.1,2.3v0.5l3.1-2.3c0.3-0.2,0.7-0.4,1.1-0.4
						l0.1,0h0.1h10.1C22.4,29.1,23,28.5,23,27.7z M35.9,0c2.2,0,4,1.8,4,4v13.7c0,2.2-1.8,4-4,4h-2.3v5.6l-7.5-5.6H14
						c-2.2,0-4-1.8-4-4V4c0-2.2,1.8-4,4-4H35.9z M37.9,17.7V4c0-1.1-0.9-2-2-2H14c-1.1,0-2,0.9-2,2v13.7c0,1.1,0.9,2,2,2h12.8
						l4.8,3.6v-3.6h4.3C37,19.7,37.9,18.8,37.9,17.7z"/>
				</g>
			</g>
		</g>
	</g>
</g>
</svg>
