<?xml version="1.0" encoding="utf-8"?>
<!-- Generator: Adobe Illustrator 23.0.1, SVG Export Plug-In . SVG Version: 6.00 Build 0)  -->
<svg version="1.1" id="Layer_1" xmlns="http://www.w3.org/2000/svg" xmlns:xlink="http://www.w3.org/1999/xlink" x="0px" y="0px"
	 viewBox="0 0 100 125" style="enable-background:new 0 0 100 125;" xml:space="preserve">
<style type="text/css">
	.st0{fill-rule:evenodd;clip-rule:evenodd;}
</style>
<path class="st0" d="M30.6,59c-2.8-0.7-5.7,0.9-6.4,3.7c-0.7,2.8,0.9,5.7,3.7,6.4c2.8,0.7,5.7-0.9,6.4-3.7
	C35.1,62.6,33.4,59.8,30.6,59L30.6,59z M27.1,54.6c2.5-0.8,5.3-2,8.2-3.5c1.7,0.9,3.5,2,5.4,3L35.9,57c2.6,2.4,3.7,6.1,2.8,9.6
	c-1.4,5.2-6.7,8.2-11.9,6.9c-5.2-1.4-8.2-6.7-6.9-11.9C20.9,58,23.6,55.4,27.1,54.6z"/>
<path class="st0" d="M44.7,45.7C56,38.8,67.1,30.5,71.9,28.5c2.8-1.2,5.8,0.5,9,2.5L50,48.8L44.7,45.7z"/>
<path class="st0" d="M30.6,41c2.8-0.7,4.4-3.6,3.7-6.4c-0.7-2.8-3.6-4.4-6.4-3.7c-2.8,0.7-4.4,3.6-3.7,6.4
	C25,40.1,27.8,41.7,30.6,41L30.6,41z M26.9,45.3c-3.4-0.9-6.1-3.4-7-6.9c-1.4-5.2,1.7-10.5,6.9-11.9c5.2-1.4,10.5,1.7,11.9,6.9
	c0.9,3.5-0.2,7.3-2.9,9.7l45.2,26.1c-3.2,2-6.2,3.6-9,2.5C64.5,68.6,41.2,49.8,26.9,45.3z"/>
<rect x="56.9" y="48.4" class="st0" width="6.4" height="3.2"/>
<rect x="72.8" y="48.4" class="st0" width="6.4" height="3.2"/>
<rect x="88.6" y="48.4" class="st0" width="6.4" height="3.2"/>
<rect x="20.7" y="48.4" class="st0" width="6.4" height="3.2"/>
<rect x="5" y="48.4" class="st0" width="6.4" height="3.2"/>
</svg>
