<?xml version="1.0" encoding="utf-8"?>
<!-- Generator: Adobe Illustrator 23.0.1, SVG Export Plug-In . SVG Version: 6.00 Build 0)  -->
<svg version="1.1" id="Layer_1" xmlns="http://www.w3.org/2000/svg" xmlns:xlink="http://www.w3.org/1999/xlink" x="0px" y="0px"
	 viewBox="0 0 94 72" style="enable-background:new 0 0 94 72;" xml:space="preserve">
<g>
	<defs>
		<path id="SVGID_1_" d="M81.5,28.8l4.5,8.9H63.5v-8.9H81.5z M87,56.3c-1.3-5.3-6-8.9-11.4-8.9c-5.4,0-10.1,3.7-11.5,8.9h-0.6V43.7
			h24.4v12.6H87z M75.5,65.2c-3.3,0-5.9-2.6-5.9-5.9s2.6-5.9,5.9-5.9s5.9,2.6,5.9,5.9c0,1.6-0.6,3.1-1.7,4.2
			C78.6,64.6,77.1,65.2,75.5,65.2z M18.4,47.5c-5.4,0-10.1,3.6-11.5,8.8H6.1V6.8h51.4v49.5H29.8C28.5,51.1,23.8,47.5,18.4,47.5z
			 M18.4,65.2c-2.4,0-4.6-1.4-5.5-3.6c-0.9-2.2-0.5-4.8,1.2-6.5c1.7-1.7,4.2-2.2,6.4-1.3c2.2,0.9,3.7,3.1,3.7,5.5
			c0,1.6-0.6,3.1-1.7,4.2C21.4,64.6,20,65.2,18.4,65.2z M0.1,0.8v61.5h6.8c1.3,5.3,6,8.9,11.5,8.9s10.1-3.7,11.4-8.9h34.3
			c1.3,5.3,6,8.9,11.5,8.9c5.4,0,10.1-3.7,11.4-8.9h6.9V39.8l-8.8-17H63.5v-22H0.1z"/>
	</defs>
	<use xlink:href="#SVGID_1_"  style="overflow:visible;"/>
	<clipPath id="SVGID_2_">
		<use xlink:href="#SVGID_1_"  style="overflow:visible;"/>
	</clipPath>
</g>
</svg>
