<?xml version="1.0" encoding="utf-8"?>
<!-- Generator: Adobe Illustrator 23.0.1, SVG Export Plug-In . SVG Version: 6.00 Build 0)  -->
<svg version="1.1" id="Layer_1" xmlns="http://www.w3.org/2000/svg" xmlns:xlink="http://www.w3.org/1999/xlink" x="0px" y="0px"
	 viewBox="0 0 100 125" style="enable-background:new 0 0 100 125;" xml:space="preserve">
<g>
	<path d="M61.2,53.5c-4.3,0-7.8,3.5-7.8,7.8s3.5,7.8,7.8,7.8s7.8-3.5,7.8-7.8c0,0,0,0,0,0C69,57,65.5,53.5,61.2,53.5z M61.2,64
		c-1.5,0-2.8-1.2-2.8-2.8s1.2-2.8,2.8-2.8c1.5,0,2.8,1.2,2.8,2.8C64,62.8,62.8,64,61.2,64z"/>
	<path d="M38.8,46.5c4.3,0,7.8-3.5,7.8-7.8S43.1,31,38.8,31S31,34.5,31,38.8c0,0,0,0,0,0C31,43.1,34.5,46.5,38.8,46.5z M38.8,36
		c1.5,0,2.8,1.2,2.8,2.8s-1.2,2.8-2.8,2.8c-1.5,0-2.8-1.2-2.8-2.8C36,37.2,37.2,36,38.8,36z"/>
	<path d="M94,47.2c-0.2-0.2-0.4-0.5-0.7-0.7l-7.6-6.1l3.5-9.1c0.9-2.3-0.3-4.9-2.5-5.7c-0.3-0.1-0.6-0.2-0.9-0.2l-9.6-1.5l-1.5-9.6
		c-0.4-2.4-2.7-4.1-5.1-3.7c-0.3,0-0.6,0.1-0.9,0.2l-9.1,3.5l-6.1-7.6c-1.5-1.9-4.3-2.2-6.2-0.7c-0.2,0.2-0.5,0.4-0.7,0.7l-6.1,7.6
		l-9.1-3.5c-2.3-0.9-4.9,0.3-5.7,2.5c-0.1,0.3-0.2,0.6-0.2,0.9l-1.5,9.6l-9.6,1.5c-2.4,0.4-4.1,2.7-3.7,5.1c0,0.3,0.1,0.6,0.2,0.9
		l3.5,9.1l-7.6,6.1c-1.9,1.5-2.2,4.3-0.7,6.2c0.2,0.2,0.4,0.5,0.7,0.7l7.6,6.1l-3.5,9.1c-0.9,2.3,0.3,4.9,2.5,5.7
		c0.3,0.1,0.6,0.2,0.9,0.2l9.6,1.5l1.5,9.6c0.4,2.4,2.7,4.1,5.1,3.7c0.3,0,0.6-0.1,0.9-0.2l9.1-3.5l6.1,7.6c1.5,1.9,4.3,2.2,6.2,0.7
		c0.2-0.2,0.5-0.4,0.7-0.7l6.1-7.6l9.1,3.5c2.3,0.9,4.9-0.3,5.7-2.5c0.1-0.3,0.2-0.6,0.2-0.9l1.5-9.6l9.6-1.5
		c2.4-0.4,4.1-2.7,3.7-5.1c0-0.3-0.1-0.6-0.2-0.9l-3.5-9.1l7.6-6.1C95.3,51.9,95.6,49.1,94,47.2z M82.3,56c-1.5,1.2-2.1,3.3-1.4,5
		l3.4,8.8L75,71.3c-1.9,0.3-3.4,1.8-3.7,3.7l-1.5,9.4L61,81c-1.8-0.7-3.8-0.1-5,1.4L50,89.7l-6-7.4c-1.2-1.5-3.3-2-5-1.4l-8.8,3.4
		L28.7,75c-0.3-1.9-1.8-3.4-3.7-3.7l-9.4-1.5L19,61c0.7-1.8,0.2-3.8-1.4-5l-7.4-6l7.4-6c1.5-1.2,2.1-3.3,1.4-5l-3.4-8.8l9.4-1.5
		c1.9-0.3,3.4-1.8,3.7-3.7l1.5-9.4L39,19c1.8,0.7,3.8,0.1,5-1.4l5.9-7.4l6,7.4c1.2,1.5,3.3,2,5,1.4l8.8-3.4l1.5,9.4
		c0.3,1.9,1.8,3.4,3.7,3.7l9.4,1.5L81,39c-0.7,1.8-0.2,3.8,1.4,5l7.4,6L82.3,56z"/>
	<path d="M64.7,31.7C64.7,31.7,64.7,31.7,64.7,31.7l-33,33c-1,1-1,2.6,0,3.5c1,1,2.6,1,3.5,0c0,0,0,0,0,0l33-33c1-1,1-2.6,0-3.5
		S65.7,30.8,64.7,31.7z"/>
</g>
</svg>
