<?xml version="1.0" encoding="utf-8"?>
<!-- Generator: Adobe Illustrator 23.0.1, SVG Export Plug-In . SVG Version: 6.00 Build 0)  -->
<svg version="1.1" id="Layer_1" xmlns="http://www.w3.org/2000/svg" xmlns:xlink="http://www.w3.org/1999/xlink" x="0px" y="0px"
	 viewBox="0 0 100 125" style="enable-background:new 0 0 100 125;" xml:space="preserve">
<path d="M90,21.8h-8.7c1.1-2.5,1.4-5.3,0.7-8c-1.1-4.2-4.2-7.4-8.2-8.7C69.6,3.7,65.3,4.6,62,7.4L50,17.6L38,7.4
	C34.8,4.6,30.4,3.7,26.3,5s-7.2,4.6-8.2,8.7c-0.7,2.7-0.4,5.5,0.7,8H10c-4.1,0-7.5,3.3-7.5,7.5v14.2c0,3.9,3,7,6.8,7.4v37.3
	c0,4.1,3.3,7.5,7.5,7.5h66.6c4.1,0,7.5-3.3,7.5-7.5V50.8c3.8-0.4,6.8-3.5,6.8-7.4V29.2C97.5,25.1,94.2,21.8,90,21.8z M66.8,13.1
	c1.3-1.1,3-1.5,4.7-0.9c1.7,0.5,2.8,1.8,3.3,3.5c0.4,1.5,0.1,3-0.9,4.2C73,21,71.5,21.7,70,21.7l0,0H56.7L66.8,13.1z M25.2,15.6
	c0.4-1.7,1.6-2.9,3.3-3.5c0.5-0.2,1-0.2,1.5-0.2c1.1,0,2.2,0.4,3.2,1.2l10.1,8.6H30c-1.6-0.1-2.9-0.7-3.9-1.9
	C25.2,18.6,24.9,17.1,25.2,15.6z M90.1,43.4H53.7V29.2H90L90.1,43.4z M10,29.2h36.3v14.2H10V29.2z M16.7,50.9h29.6v37.2H16.7V50.9z
	 M53.7,88.1V50.9h29.6v37.2L53.7,88.1z"/>
</svg>
