<?xml version="1.0" encoding="utf-8"?>
<!-- Generator: Adobe Illustrator 23.0.1, SVG Export Plug-In . SVG Version: 6.00 Build 0)  -->
<svg version="1.1" id="Layer_1" xmlns="http://www.w3.org/2000/svg" xmlns:xlink="http://www.w3.org/1999/xlink" x="0px" y="0px"
	 viewBox="0 0 135.5 82.5" style="enable-background:new 0 0 135.5 82.5;" xml:space="preserve">
<style type="text/css">
	.st0{fill-rule:evenodd;clip-rule:evenodd;fill:#AEAEAE;}
	.st1{fill-rule:evenodd;clip-rule:evenodd;fill:#E10E19;}
</style>
<g>
	<g transform="translate(-61.000000, -57.000000)">
		<path class="st0" d="M119.9,108.7c-2.3,4.8-7.2,8-12.7,8c-7.7,0-14-6.3-14-14s6.3-14,14-14c5.5,0,10.4,3.2,12.7,8h26.3
			c2.8,0,5,2.2,5,5v2c0,2.8-2.2,5-5,5H119.9z M107.3,90.7c-6.6,0-12,5.4-12,12c0,6.6,5.4,12,12,12c4.4,0,8.3-2.3,10.4-6h-11.4
			c-2.8,0-5-2.2-5-5v-2c0-2.8,2.2-5,5-5h11.4C115.6,93,111.6,90.7,107.3,90.7z M103.3,101.7v2c0,1.7,1.3,3,3,3h40c1.7,0,3-1.3,3-3
			v-2c0-1.7-1.3-3-3-3h-40C104.6,98.7,103.3,100,103.3,101.7z"/>
	</g>
</g>
<path class="st1" d="M83.8,47.4H46.7c-0.9,0-1.7-0.8-1.7-1.7v0c0-0.9,0.8-1.7,1.7-1.7h37.1c0.9,0,1.7,0.8,1.7,1.7v0
	C85.5,46.6,84.8,47.4,83.8,47.4z"/>
</svg>
