<?xml version="1.0" encoding="utf-8"?>
<!-- Generator: Adobe Illustrator 23.0.1, SVG Export Plug-In . SVG Version: 6.00 Build 0)  -->
<svg version="1.1" id="Layer_1" xmlns="http://www.w3.org/2000/svg" xmlns:xlink="http://www.w3.org/1999/xlink" x="0px" y="0px"
	 viewBox="0 0 87 52" style="enable-background:new 0 0 87 52;" xml:space="preserve">
<g>
	<defs>
		<path id="SVGID_1_" d="M13.5,28c0.8,0,1.5-0.9,1.5-2s-0.7-2-1.5-2S12,24.9,12,26S12.7,28,13.5,28z M19.1,0v52L0,45.8V6.2L19.1,0z"
			/>
	</defs>
	<use xlink:href="#SVGID_1_"  style="overflow:visible;fill-rule:evenodd;clip-rule:evenodd;fill:#E10E19;"/>
	<clipPath id="SVGID_2_">
		<use xlink:href="#SVGID_1_"  style="overflow:visible;"/>
	</clipPath>
</g>
<g>
	<defs>
		<path id="SVGID_3_" d="M87,26.4v3.7h-4.7v10.7h-4.6V30.1h-4.7v-3.7H87z M65.1,26.2c0.9,0,1.7,0.1,2.4,0.3c0.8,0.2,1.4,0.4,2,0.8
			c0.6,0.4,1,0.8,1.4,1.4c0.3,0.6,0.5,1.2,0.5,2v0.2h-4.3v-0.1c0-0.2,0-0.4-0.1-0.5c-0.1-0.2-0.2-0.3-0.3-0.5s-0.3-0.2-0.6-0.3
			c-0.2-0.1-0.5-0.1-0.8-0.1c-0.6,0-1.1,0.1-1.4,0.3c-0.3,0.2-0.5,0.4-0.5,0.7c0,0.3,0.1,0.5,0.4,0.7c0.2,0.2,0.6,0.3,0.9,0.4
			c0.4,0.1,0.8,0.2,1.3,0.3c0.5,0.1,1,0.2,1.5,0.3c0.5,0.1,1,0.3,1.5,0.5c0.5,0.2,1,0.4,1.3,0.8c0.4,0.3,0.7,0.7,1,1.2
			c0.2,0.5,0.4,1,0.4,1.7c0,0.9-0.2,1.6-0.5,2.3s-0.8,1.2-1.3,1.6c-0.6,0.4-1.2,0.7-2,0.9c-0.8,0.2-1.6,0.3-2.5,0.3
			c-1,0-1.9-0.1-2.8-0.2c-0.9-0.1-1.6-0.4-2.2-0.8c-0.6-0.4-1.1-0.9-1.5-1.6c-0.4-0.7-0.5-1.5-0.5-2.5h4.3c0,0.4,0.1,0.7,0.2,0.9
			c0.1,0.2,0.3,0.4,0.5,0.5c0.2,0.1,0.4,0.2,0.7,0.3c0.3,0,0.6,0.1,1,0.1c0.2,0,0.4,0,0.7,0c0.2,0,0.5-0.1,0.7-0.1s0.4-0.2,0.5-0.3
			c0.1-0.1,0.2-0.3,0.2-0.5c0-0.3-0.1-0.5-0.4-0.6c-0.2-0.2-0.6-0.3-1-0.4c-0.4-0.1-0.8-0.2-1.3-0.3c-0.5-0.1-1-0.2-1.5-0.3
			c-0.5-0.1-1-0.3-1.5-0.5c-0.5-0.2-1-0.5-1.3-0.8c-0.4-0.3-0.7-0.7-1-1.2c-0.2-0.5-0.4-1.1-0.4-1.8c0-0.8,0.2-1.5,0.5-2.1
			c0.4-0.6,0.8-1.1,1.4-1.4c0.6-0.4,1.3-0.6,2-0.8C63.5,26.3,64.3,26.2,65.1,26.2z M56.7,40.7H44.2V26.4h12.3v3.4h-7.7v2h6.6v3.3
			h-6.6v2.2h7.9V40.7z M42.6,26.4l-3.3,14.3h-5L32.4,32h-0.1l-1.8,8.7h-5l-3.3-14.3h4.8l1.6,8.1h0.1l1.6-8.1h4.5l1.7,8.1h0.1
			l1.5-8.1H42.6z M79.4,14.7h-1.5v7.4h1.5c0.5,0,0.9-0.1,1.3-0.2c0.4-0.1,0.7-0.3,0.9-0.6c0.2-0.3,0.4-0.6,0.5-1
			c0.1-0.4,0.2-0.8,0.2-1.3v-1.2c0-0.5-0.1-0.9-0.2-1.3c-0.1-0.4-0.3-0.7-0.5-1c-0.2-0.3-0.5-0.5-0.9-0.6
			C80.4,14.8,79.9,14.7,79.4,14.7z M73.4,11.3h6.2c1.2,0,2.3,0.1,3.2,0.4c0.9,0.3,1.7,0.7,2.3,1.3c0.6,0.6,1.1,1.3,1.4,2.2
			c0.3,0.9,0.5,2,0.5,3.2c0,1.2-0.2,2.3-0.5,3.2c-0.3,0.9-0.8,1.6-1.4,2.2c-0.6,0.6-1.4,1-2.3,1.3c-0.9,0.3-2,0.4-3.2,0.4h-6.2V11.3
			z M65.4,15.8c0-0.2,0-0.4-0.1-0.5c-0.1-0.2-0.2-0.3-0.3-0.4c-0.1-0.1-0.3-0.2-0.4-0.3c-0.2-0.1-0.3-0.1-0.5-0.1h-3v2.6h3
			c0.2,0,0.3,0,0.5-0.1c0.2-0.1,0.3-0.2,0.4-0.3c0.1-0.1,0.2-0.3,0.3-0.4C65.3,16.2,65.4,16,65.4,15.8z M70,15.6
			c0,0.4-0.1,0.8-0.2,1.2c-0.1,0.4-0.3,0.8-0.5,1.1c-0.2,0.3-0.5,0.7-0.9,0.9s-0.7,0.5-1.2,0.7l3.2,6h-5.1l-2.5-5.2h-1.7v5.2h-4.6
			V11.3h8.7c0.8,0,1.5,0.1,2.1,0.4c0.6,0.2,1.1,0.6,1.5,1c0.4,0.4,0.7,0.9,0.9,1.4C69.9,14.5,70,15.1,70,15.6z M46.3,14.4
			c-0.5,0-0.9,0.1-1.3,0.2c-0.4,0.2-0.7,0.4-0.9,0.7c-0.2,0.3-0.4,0.6-0.6,1c-0.1,0.4-0.2,0.9-0.2,1.3v1.3c0,0.5,0.1,0.9,0.2,1.3
			c0.1,0.4,0.3,0.8,0.6,1c0.2,0.3,0.6,0.5,0.9,0.7c0.4,0.2,0.8,0.2,1.3,0.2c0.5,0,0.9-0.1,1.3-0.2c0.4-0.2,0.7-0.4,0.9-0.7
			c0.3-0.3,0.4-0.6,0.6-1c0.1-0.4,0.2-0.9,0.2-1.3v-1.3c0-0.5-0.1-0.9-0.2-1.3c-0.1-0.4-0.3-0.8-0.6-1c-0.3-0.3-0.6-0.5-0.9-0.7
			C47.3,14.5,46.8,14.4,46.3,14.4z M46.3,11c1.2,0,2.3,0.2,3.3,0.5c1,0.3,1.8,0.8,2.4,1.4s1.2,1.4,1.5,2.3c0.3,0.9,0.5,2,0.5,3.2
			c0,1.2-0.2,2.3-0.5,3.2c-0.3,0.9-0.8,1.7-1.5,2.3c-0.7,0.6-1.5,1.1-2.4,1.4c-1,0.3-2,0.5-3.3,0.5c-1.2,0-2.3-0.2-3.3-0.5
			c-1-0.3-1.8-0.8-2.4-1.4c-0.7-0.6-1.2-1.4-1.5-2.3c-0.3-0.9-0.5-2-0.5-3.2c0-1.2,0.2-2.3,0.5-3.2c0.3-0.9,0.8-1.7,1.5-2.3
			s1.5-1.1,2.4-1.4C44,11.2,45.1,11,46.3,11z M36.2,11.3v14.3h-4l-6-7v7H22V11.3h4l6,7.1v-7.1H36.2z"/>
	</defs>
	<use xlink:href="#SVGID_3_"  style="overflow:visible;fill:#FFFFFF;"/>
	<clipPath id="SVGID_4_">
		<use xlink:href="#SVGID_3_"  style="overflow:visible;"/>
	</clipPath>
</g>
<g>
	<defs>
		<rect id="SVGID_5_" x="19" y="3" width="13" height="2"/>
	</defs>
	<use xlink:href="#SVGID_5_"  style="overflow:visible;fill:#E10E19;"/>
	<clipPath id="SVGID_6_">
		<use xlink:href="#SVGID_5_"  style="overflow:visible;"/>
	</clipPath>
</g>
<g>
	<defs>
		<rect id="SVGID_7_" x="30" y="3" width="2" height="6"/>
	</defs>
	<use xlink:href="#SVGID_7_"  style="overflow:visible;fill:#E10E19;"/>
	<clipPath id="SVGID_8_">
		<use xlink:href="#SVGID_7_"  style="overflow:visible;"/>
	</clipPath>
</g>
<g>
	<defs>
		<rect id="SVGID_9_" x="30" y="43" width="2" height="6"/>
	</defs>
	<use xlink:href="#SVGID_9_"  style="overflow:visible;fill:#E10E19;"/>
	<clipPath id="SVGID_10_">
		<use xlink:href="#SVGID_9_"  style="overflow:visible;"/>
	</clipPath>
</g>
<g>
	<defs>
		<rect id="SVGID_11_" x="19" y="47" width="13" height="2"/>
	</defs>
	<use xlink:href="#SVGID_11_"  style="overflow:visible;fill:#E10E19;"/>
	<clipPath id="SVGID_12_">
		<use xlink:href="#SVGID_11_"  style="overflow:visible;"/>
	</clipPath>
</g>
</svg>
