<?xml version="1.0" encoding="utf-8"?>
<!-- Generator: Adobe Illustrator 23.0.1, SVG Export Plug-In . SVG Version: 6.00 Build 0)  -->
<svg version="1.1" id="Isolation_Mode" xmlns="http://www.w3.org/2000/svg" xmlns:xlink="http://www.w3.org/1999/xlink" x="0px"
	 y="0px" viewBox="0 0 116.5 72" style="enable-background:new 0 0 116.5 72;" xml:space="preserve">
<path d="M55.1,65.3c0.3,0.2,0.6,0.5,0.9,0.7c-5.7,3.8-12.6,6-19.9,6C16.1,72,0,55.9,0,36S16.1,0,36,0c7.4,0,14.2,2.2,19.9,6
	c-0.3,0.2-0.6,0.5-0.9,0.7c-8.5,7.4-13.3,18-13.3,29.3C41.7,47.2,46.6,57.9,55.1,65.3z M80.5,0c-7.4,0-14.2,2.2-19.9,6
	c0.3,0.2,0.6,0.5,0.9,0.7c8.5,7.4,13.3,18,13.3,29.3c0,11.2-4.9,21.9-13.3,29.3c-0.3,0.2-0.6,0.5-0.9,0.7c5.7,3.8,12.6,6,19.9,6
	c19.9,0,36-16.1,36-36C116.5,16.1,100.4,0,80.5,0z M58.2,7.7c-0.5,0.4-0.9,0.7-1.4,1.1C49.3,15.4,44.5,25.2,44.5,36
	c0,10.8,4.8,20.6,12.4,27.2c0.4,0.4,0.9,0.8,1.4,1.1c0.5-0.4,0.9-0.7,1.4-1.1C67.2,56.6,72,46.8,72,36c0-10.8-4.8-20.6-12.4-27.2
	C59.2,8.5,58.7,8.1,58.2,7.7"/>
</svg>
