<?xml version="1.0" encoding="utf-8"?>
<!-- Generator: Adobe Illustrator 23.0.1, SVG Export Plug-In . SVG Version: 6.00 Build 0)  -->
<svg version="1.1" id="Layer_1" xmlns="http://www.w3.org/2000/svg" xmlns:xlink="http://www.w3.org/1999/xlink" x="0px" y="0px"
	 viewBox="0 0 80 90" style="enable-background:new 0 0 80 90;" xml:space="preserve">
<g>
	<defs>
		<path id="SVGID_1_" d="M29.6,55.8l6.6,6.6l-9,2.3L29.6,55.8z M62.5,33.7l3.2,3.2L42,59.8L39.2,57L62.5,33.7z M55.2,26.4l3,3.1
			L35,52.8L32.2,50L55.2,26.4z M63.5,18C63.5,18,63.5,18,63.5,18L74,28.6c0,0,0,0.1,0,0.1c0,0.1,0,0.1,0,0.1l-4,3.9L59.4,22.2
			L63.5,18C63.4,18,63.5,18,63.5,18z M6,5h18v48.4l-3.9,14.8c-0.3,1,0,2.1,0.8,2.9c0.8,0.8,1.8,1,2.9,0.8l0.2-0.1V83H6V72h9
			c1.1,0,2.1-0.6,2.6-1.5c0.5-0.9,0.5-2.1,0-3C17.1,66.6,16.1,66,15,66H6V55h9c1.1,0,2.1-0.6,2.6-1.5s0.5-2.1,0-3S16.1,49,15,49H6
			V38h9c1.1,0,2.1-0.6,2.6-1.5s0.5-2.1,0-3S16.1,32,15,32H6V21h9c1.1,0,2.1-0.6,2.6-1.5c0.5-0.9,0.5-2.1,0-3
			C17.1,15.6,16.1,15,15,15H6V5z M2.7-1C1.2-0.8,0,0.5,0,2v84c0,1.7,1.3,3,3,3h24c1.7,0,3-1.3,3-3V70.2l12.8-3.3
			c0.5-0.1,1-0.4,1.3-0.8l34.1-33c1.3-1.2,1.9-2.9,1.8-4.5c0-1.5-0.6-3.1-1.8-4.2L67.8,13.8C66.6,12.6,65,12,63.5,12
			c-1.6,0-3.2,0.6-4.4,1.8c0,0,0,0,0,0L30,43.7V2c0-1.7-1.3-3-3-3H3C2.9-1,2.8-1,2.7-1z"/>
	</defs>
	<use xlink:href="#SVGID_1_"  style="overflow:visible;"/>
	<clipPath id="SVGID_2_">
		<use xlink:href="#SVGID_1_"  style="overflow:visible;"/>
	</clipPath>
</g>
</svg>
