<?xml version="1.0" encoding="utf-8"?>
<!-- Generator: Adobe Illustrator 23.0.1, SVG Export Plug-In . SVG Version: 6.00 Build 0)  -->
<svg version="1.1" id="Layer_1" xmlns="http://www.w3.org/2000/svg" xmlns:xlink="http://www.w3.org/1999/xlink" x="0px" y="0px"
	 viewBox="0 0 88.5 68.5" style="enable-background:new 0 0 88.5 68.5;" xml:space="preserve">
<g transform="matrix( 1, 0, 0, 1, 0,0) ">
	<g>
		<g id="a">
			<path d="M88.5,61.4c-1-1-2.1-1.4-3.5-1.4H5c-1.4,0-2.6,0.5-3.6,1.4c-1,1-1.4,2.2-1.4,3.6c0,1.4,0.5,2.5,1.4,3.5
				c1,1,2.2,1.5,3.6,1.5h80c1.4,0,2.5-0.5,3.5-1.5c1-1,1.5-2.1,1.5-3.5C90,63.6,89.5,62.4,88.5,61.4 M88.5,1.5c-1-1-2.1-1.4-3.5-1.5
				H5C3.6,0,2.4,0.5,1.4,1.5C0.5,2.4,0,3.6,0,5c0,1.4,0.5,2.5,1.4,3.5c1,1,2.2,1.5,3.6,1.5h80c1.4,0,2.5-0.5,3.5-1.5
				c1-1,1.5-2.1,1.5-3.5C90,3.6,89.5,2.4,88.5,1.5 M88.5,31.5c-1-1-2.1-1.4-3.5-1.5H5c-1.4,0-2.6,0.5-3.6,1.5c-1,1-1.4,2.2-1.4,3.5
				c0,1.4,0.5,2.5,1.4,3.5c1,1,2.2,1.5,3.6,1.5h80c1.4,0,2.5-0.5,3.5-1.5c1-1,1.5-2.1,1.5-3.5C90,33.6,89.5,32.4,88.5,31.5z"/>
		</g>
	</g>
</g>
</svg>
