<?xml version="1.0" encoding="utf-8"?>
<!-- Generator: Adobe Illustrator 23.0.1, SVG Export Plug-In . SVG Version: 6.00 Build 0)  -->
<svg version="1.1" id="Layer_1" xmlns="http://www.w3.org/2000/svg" xmlns:xlink="http://www.w3.org/1999/xlink" x="0px" y="0px"
	 viewBox="0 0 809 229" style="enable-background:new 0 0 809 229;" xml:space="preserve">
<g>
	<defs>
		<path id="SVGID_1_" d="M218,0v0.1c-0.1,0-31.6-0.1-40,30c-7.7,27.6-29.4,103.8-30,105.9h-6c0,0-22.2-77.9-30-106
			C103.6-0.1,72,0,72,0H0v229h72V93h3h3l42,136h50l42-135.9h6V229h72V0H218z"/>
	</defs>
	<use xlink:href="#SVGID_1_"  style="overflow:visible;fill-rule:evenodd;clip-rule:evenodd;"/>
	<clipPath id="SVGID_2_">
		<use xlink:href="#SVGID_1_"  style="overflow:visible;"/>
	</clipPath>
</g>
<g>
	<defs>
		<path id="SVGID_3_" d="M481,0c0,0-21.1,1.9-31,24l-51,112h-6V0h-72v229h68c0,0,22.1-2,32-24l50-112h6v136h72V0H481z"/>
	</defs>
	<use xlink:href="#SVGID_3_"  style="overflow:visible;fill-rule:evenodd;clip-rule:evenodd;"/>
	<clipPath id="SVGID_4_">
		<use xlink:href="#SVGID_3_"  style="overflow:visible;"/>
	</clipPath>
</g>
<g>
	<defs>
		<path id="SVGID_5_" d="M581,104v125h72v-73h78c34,0,62.8-21.7,73.5-52H581z"/>
	</defs>
	<use xlink:href="#SVGID_5_"  style="overflow:visible;fill-rule:evenodd;clip-rule:evenodd;"/>
	<clipPath id="SVGID_6_">
		<use xlink:href="#SVGID_5_"  style="overflow:visible;"/>
	</clipPath>
</g>
<g>
	<defs>
		<path id="SVGID_7_" d="M731,0H570.9c8,43.6,40.7,78.6,83,90c9.6,2.6,19.7,4,30.1,4h123.4c1.1-5.2,1.6-10.5,1.6-16
			C809,34.9,774.1,0,731,0z"/>
	</defs>
	<use xlink:href="#SVGID_7_"  style="overflow:visible;fill-rule:evenodd;clip-rule:evenodd;"/>
	<clipPath id="SVGID_8_">
		<use xlink:href="#SVGID_7_"  style="overflow:visible;"/>
	</clipPath>
</g>
</svg>
