<?xml version="1.0" encoding="utf-8"?>
<!-- Generator: Adobe Illustrator 23.0.1, SVG Export Plug-In . SVG Version: 6.00 Build 0)  -->
<svg version="1.1" id="Layer_1" xmlns="http://www.w3.org/2000/svg" xmlns:xlink="http://www.w3.org/1999/xlink" x="0px" y="0px"
	 viewBox="0 0 33 40" style="enable-background:new 0 0 33 40;" xml:space="preserve">
<g>
	<defs>
		<path id="SVGID_1_" d="M30.8,2.2H2.2v4.4h2.2V5.6c0-0.6,0.4-1,1-1.1l0.1,0h22c0.6,0,1,0.4,1.1,1l0,0.1v1.1h2.2V2.2z M23.1,8.9
			c0.6,0,1.1,0.5,1.1,1.1c0,0.6-0.4,1-1,1.1l-0.1,0H9.9c-0.6,0-1.1-0.5-1.1-1.1c0-0.6,0.4-1,1-1.1l0.1,0H23.1z M23.1,13.3
			c0.6,0,1.1,0.5,1.1,1.1c0,0.6-0.4,1-1,1.1l-0.1,0H9.9c-0.6,0-1.1-0.5-1.1-1.1c0-0.6,0.4-1,1-1.1l0.1,0H23.1z M17.6,17.8
			c0.6,0,1.1,0.5,1.1,1.1c0,0.6-0.4,1-1,1.1l-0.1,0H9.9c-0.6,0-1.1-0.5-1.1-1.1c0-0.6,0.4-1,1-1.1l0.1,0H17.6z M23.1,22.2
			c0.6,0,1.1,0.5,1.1,1.1c0,0.6-0.4,1-1,1.1l-0.1,0H9.9c-0.6,0-1.1-0.5-1.1-1.1c0-0.6,0.4-1,1-1.1l0.1,0H23.1z M9.9,26.7h13.2
			c0.6,0,1.1,0.5,1.1,1.1c0,0.6-0.4,1-1,1.1l-0.1,0H9.9c-0.6,0-1.1-0.5-1.1-1.1c0-0.6,0.4-1,1-1.1L9.9,26.7h13.2H9.9z M17.6,31.1
			c0.6,0,1.1,0.5,1.1,1.1c0,0.6-0.5,1.1-1.1,1.1H9.9c-0.6,0-1.1-0.5-1.1-1.1c0-0.6,0.5-1.1,1.1-1.1H17.6z M26.4,6.7H6.6v29.5
			l1.1,1.1l1.5-1.4c0.4-0.4,1-0.4,1.4-0.1l0.1,0.1l1.4,1.4l1.5-1.4c0.4-0.4,1-0.4,1.4-0.1l0.1,0.1l1.4,1.4l1.4-1.5
			c0.2-0.2,0.5-0.3,0.8-0.3c0.3,0,0.5,0.1,0.7,0.3l0.1,0.1l1.4,1.4l1.5-1.4c0.4-0.4,1-0.4,1.4-0.1l0.1,0.1l1.4,1.4l1.1-1.1V6.7z
			 M31.9,0c0.6,0,1,0.4,1.1,1l0,0.1v6.7c0,0.6-0.4,1-1,1.1l-0.1,0h-3.3v27.7c0,0.3-0.1,0.5-0.2,0.7l-0.1,0.1l-2.2,2.2
			c-0.2,0.2-0.5,0.3-0.8,0.3c-0.3,0-0.5-0.1-0.7-0.2l-0.1-0.1l-1.4-1.4l-1.4,1.4c-0.2,0.2-0.5,0.3-0.8,0.3c-0.3,0-0.5-0.1-0.7-0.2
			l-0.1-0.1l-1.4-1.4l-1.5,1.4c-0.4,0.4-1,0.4-1.4,0.1l-0.1-0.1l-1.4-1.4l-1.5,1.4c-0.4,0.4-1,0.4-1.4,0.1l-0.1-0.1l-1.4-1.4
			l-1.5,1.5c-0.4,0.4-1,0.4-1.4,0.1l-0.1-0.1l-2.2-2.2c-0.1-0.2-0.3-0.4-0.3-0.6l0-0.2V8.9H1.1c-0.6,0-1-0.4-1.1-1l0-0.1V1.1
			c0-0.6,0.4-1,1-1.1l0.1,0H31.9z"/>
	</defs>
	<use xlink:href="#SVGID_1_"  style="overflow:visible;"/>
	<clipPath id="SVGID_2_">
		<use xlink:href="#SVGID_1_"  style="overflow:visible;"/>
	</clipPath>
</g>
</svg>
