<?xml version="1.0" encoding="utf-8"?>
<!-- Generator: Adobe Illustrator 23.0.1, SVG Export Plug-In . SVG Version: 6.00 Build 0)  -->
<svg version="1.1" id="Layer_1" xmlns="http://www.w3.org/2000/svg" xmlns:xlink="http://www.w3.org/1999/xlink" x="0px" y="0px"
	 viewBox="0 0 333 416.2" style="enable-background:new 0 0 333 416.2;" xml:space="preserve">
<style type="text/css">
	.st0{fill-rule:evenodd;clip-rule:evenodd;}
</style>
<g>
	<path class="st0" d="M37,112C18,45,78,27,85,35c7,9,42,55,42,55s9,6-5,18c-13,12-20,22-20,22s-4,3,4,17c6,11,69,74,80,80
		c14,8,17,5,17,5s10-8,22-21s19-4,19-4s46,35,54,42c9,6-9,66-77,47C149,276,57,184,37,112z"/>
</g>
</svg>
