<?xml version="1.0" encoding="utf-8"?>
<!-- Generator: Adobe Illustrator 23.0.1, SVG Export Plug-In . SVG Version: 6.00 Build 0)  -->
<svg version="1.1" id="Layer_1" xmlns="http://www.w3.org/2000/svg" xmlns:xlink="http://www.w3.org/1999/xlink" x="0px" y="0px"
	 viewBox="0 0 65 64" style="enable-background:new 0 0 65 64;" xml:space="preserve">
<g>
	<defs>
		<path id="SVGID_1_" d="M42.4,4.3l0.1,0.1l21.4,38.7c0.5,0.9,0.2,2.1-0.6,2.6l-0.1,0.1L40.8,58.2v-4.6l18.6-10.3L39.6,7.5l-12,0.9
			L24,6.7l0-2.1l16.6-1.2C41.3,3.4,42,3.7,42.4,4.3z M21,13.1v6.6c0,1.1-0.9,2-2,2s-2-0.9-2-2v-6.6L4.2,19.1V60h29.7V19.1L21,13.1z
			 M19,0c1.1,0,2,0.9,2,2v6.7L36.7,16c0.7,0.3,1.1,1,1.2,1.8V62c0,1.1-0.9,2-2,2H2.1c-1.1,0-2-0.9-2-2V17.8c0-0.8,0.5-1.5,1.2-1.8
			L17,8.7V2C17,0.9,17.9,0,19,0z"/>
	</defs>
	<use xlink:href="#SVGID_1_"  style="overflow:visible;"/>
	<clipPath id="SVGID_2_">
		<use xlink:href="#SVGID_1_"  style="overflow:visible;"/>
	</clipPath>
</g>
</svg>
