<?xml version="1.0" encoding="utf-8"?>
<!-- Generator: Adobe Illustrator 23.0.1, SVG Export Plug-In . SVG Version: 6.00 Build 0)  -->
<svg version="1.1" id="Layer_1" xmlns="http://www.w3.org/2000/svg" xmlns:xlink="http://www.w3.org/1999/xlink" x="0px" y="0px"
	 viewBox="0 0 32 40" style="enable-background:new 0 0 32 40;" xml:space="preserve">
<g>
	<path d="M8,16c-4.4,0-8-2.7-8-6s3.6-6,8-6s8,2.7,8,6c0,0.6-0.4,1-1,1s-1-0.4-1-1c0-2.2-2.7-4-6-4s-6,1.8-6,4s2.7,4,6,4
		c0.6,0,1,0.4,1,1S8.6,16,8,16z M8,28c-4.4,0-8-2.7-8-6c0-0.6,0.4-1,1-1s1,0.4,1,1c0,2.2,2.7,4,6,4c0.6,0,1,0.4,1,1S8.6,28,8,28z
		 M29.7,28H8c-0.6,0-1-0.4-1-1s0.4-1,1-1h21.7c0.1,0,0.3-0.1,0.3-0.3v-9.5c0-0.1-0.1-0.3-0.3-0.3H8c-0.6,0-1-0.4-1-1s0.4-1,1-1h21.7
		c1.2,0,2.3,1,2.3,2.3v9.5C32,27,31,28,29.7,28z M1,23c-0.6,0-1-0.4-1-1V10.1c0-0.6,0.4-1,1-1s1,0.4,1,1V22C2,22.6,1.6,23,1,23z
		 M15,27L15,27c-0.6,0-1-0.5-1-1l0-5c0-0.5,0.5-1,1-1h0c0.6,0,1,0.5,1,1l0,5C16,26.6,15.5,27,15,27z M23,27c-0.6,0-1-0.4-1-1v-5
		c0-0.6,0.4-1,1-1s1,0.4,1,1v5C24,26.6,23.6,27,23,27z M19,27L19,27c-0.6,0-1-0.5-1-1l0-2c0-0.6,0.5-1,1-1c0.6,0,1,0.5,1,1l0,2
		C19.9,26.6,19.5,27,19,27z M27,27.5L27,27.5c-0.6,0-1-0.5-1-1l0-2.5c0-0.6,0.5-1,1-1c0.6,0,1,0.5,1,1l0,2.5
		C28,27.1,27.5,27.5,27,27.5z M7,27L7,27c-0.6,0-1-0.5-1-1l0-5c0-0.5,0.5-1,1-1h0c0.6,0,1,0.5,1,1l0,5C8,26.6,7.5,27,7,27z M11,27
		L11,27c-0.6,0-1-0.5-1-1l0-2c0-0.6,0.5-1,1-1c0.6,0,1,0.5,1,1l0,2C11.9,26.6,11.5,27,11,27z M4,27L4,27c-0.6,0-1-0.5-1-1l0-3
		c0-0.5,0.5-1,1-1h0c0.6,0,1,0.5,1,1l0,3C5,26.6,4.5,27,4,27z M15,15c-0.6,0-1-0.4-1-1v-4c0-0.6,0.4-1,1-1s1,0.4,1,1v4
		C16,14.6,15.6,15,15,15z"/>
	<circle cx="8" cy="10" r="2"/>
	<path d="M8,16c-0.6,0-1-0.4-1-1s0.4-1,1-1c3.3,0,6-1.8,6-4c0-0.6,0.4-1,1-1s1,0.4,1,1C16,13.3,12.4,16,8,16z"/>
</g>
</svg>
