<?xml version="1.0" encoding="utf-8"?>
<!-- Generator: Adobe Illustrator 23.0.1, SVG Export Plug-In . SVG Version: 6.00 Build 0)  -->
<svg version="1.1" id="Layer_1" xmlns="http://www.w3.org/2000/svg" xmlns:xlink="http://www.w3.org/1999/xlink" x="0px" y="0px"
	 viewBox="0 0 21 26.2" style="enable-background:new 0 0 21 26.2;" xml:space="preserve">
<g>
	<path d="M8.7,14.4C5.6,14.4,3,11.8,3,8.7C3,5.6,5.6,3,8.7,3s5.7,2.6,5.7,5.7C14.4,11.8,11.8,14.4,8.7,14.4L8.7,14.4z M15.8,13.7
		L15.6,14c1.1-1.5,1.8-3.3,1.8-5.3c0-4.8-3.9-8.7-8.7-8.7C3.9,0,0,3.9,0,8.7s3.9,8.7,8.7,8.7c2,0,3.8-0.7,5.3-1.8l-0.2,0.2l4.6,4.6
		l2.1-2.1L15.8,13.7z"/>
</g>
</svg>
