<?xml version="1.0" encoding="utf-8"?>
<!-- Generator: Adobe Illustrator 23.0.1, SVG Export Plug-In . SVG Version: 6.00 Build 0)  -->
<svg version="1.1" id="Layer_1" xmlns="http://www.w3.org/2000/svg" xmlns:xlink="http://www.w3.org/1999/xlink" x="0px" y="0px"
	 viewBox="0 0 70 91" style="enable-background:new 0 0 70 91;" xml:space="preserve">
<g>
	<defs>
		<path id="SVGID_1_" d="M28.8,44.2l-9.7,9.7c-1.1,1.1-1.1,2.8,0,3.9c0.5,0.5,1.2,0.8,2,0.8c0.7,0,1.4-0.3,1.9-0.8l9.7-9.7
			c1.1-1.1,1.1-2.9,0-4C31.7,43.1,29.9,43.1,28.8,44.2z"/>
	</defs>
	<use xlink:href="#SVGID_1_"  style="overflow:visible;"/>
	<clipPath id="SVGID_2_">
		<use xlink:href="#SVGID_1_"  style="overflow:visible;"/>
	</clipPath>
</g>
<g>
	<defs>
		<path id="SVGID_3_" d="M52.2,23.9l-6.4-6.4l5.3-5.3l6.4,6.4L52.2,23.9z M51.3,32.4c0,1-0.4,1.9-1.1,2.6L23,62.3
			c-0.7,0.7-1.6,1.1-2.4,1.1l-0.3,0c-1,0-1.9-0.4-2.6-1.1L7.4,52.1c-0.7-0.7-1.1-1.7-1.1-2.7l0-0.2c0.1-0.9,0.4-1.7,1.1-2.4
			l27.3-27.2c0.7-0.7,1.6-1.1,2.7-1.1c0.9,0,1.8,0.4,2.6,1.1l10.3,10.3C50.9,30.5,51.3,31.4,51.3,32.4L51.3,32.4z M44.6,55.1
			l-3.3-3.3l4.1-4.1l3.3,3.3L44.6,55.1z M50.7,69l-6.2,6.2L31.3,61.9l6.2-6.2L50.7,69z M57.8,69.7l1.5,1.5L46.7,83.7l-1.5-1.5
			L57.8,69.7z M68.4,1.3c-1.5-1.5-4.2-1.5-5.7,0l-7.3,7.3l-2.3-2.3c-1-1.1-2.8-1.1-3.9,0l-7.6,7.6c-1.3-0.7-2.7-1-4.1-1l-0.2,0
			c-2.5,0-4.8,1-6.5,2.7L3.5,42.9c-1.7,1.7-2.7,4-2.7,6.5l0,0.1c-0.1,2.4,0.9,4.8,2.7,6.6l10.2,10.3c1.7,1.7,4.1,2.7,6.6,2.7
			c2.4,0,4.8-1,6.5-2.7l0.4-0.4l13.3,13.3l-1.2,1.2c-0.5,0.5-0.8,1.3-0.8,2c0,0.7,0.3,1.3,0.7,1.8l5.5,5.5c0.5,0.5,1.2,0.8,1.9,0.8
			c0.8,0,1.5-0.3,2-0.8l16.5-16.5c0.5-0.5,0.8-1.3,0.8-2c0-0.7-0.3-1.4-0.7-1.9l-5.4-5.5c-1-1-2.8-1-4,0.1l-1.2,1.2L48.5,59l5.9-5.9
			l0.1-0.1c1.1-1.1,1.1-2.8,0-3.9l-5.2-5.2l4.7-4.7c1.7-1.7,2.7-4,2.7-6.6c0-1.5-0.4-3-1-4.3l7.6-7.6c0.5-0.5,0.8-1.2,0.8-1.9
			c0-0.7-0.3-1.5-0.8-2l-2.3-2.3L68.4,7C70,5.4,70,2.9,68.4,1.3z"/>
	</defs>
	<use xlink:href="#SVGID_3_"  style="overflow:visible;"/>
	<clipPath id="SVGID_4_">
		<use xlink:href="#SVGID_3_"  style="overflow:visible;"/>
	</clipPath>
</g>
<g>
	<defs>
		<path id="SVGID_5_" d="M25.4,36.8c-1.1-1.1-2.9-1.1-4,0l-9.7,9.7c-0.5,0.5-0.8,1.2-0.8,1.9c0,0.8,0.3,1.5,0.8,2
			c0.5,0.5,1.2,0.8,1.9,0.8c0.7,0,1.5-0.3,2-0.8l9.7-9.7C26.4,39.6,26.5,37.9,25.4,36.8z"/>
	</defs>
	<use xlink:href="#SVGID_5_"  style="overflow:visible;"/>
	<clipPath id="SVGID_6_">
		<use xlink:href="#SVGID_5_"  style="overflow:visible;"/>
	</clipPath>
</g>
</svg>
