<?xml version="1.0" encoding="utf-8"?>
<!-- Generator: Adobe Illustrator 23.0.1, SVG Export Plug-In . SVG Version: 6.00 Build 0)  -->
<svg version="1.1" id="Layer_1" xmlns="http://www.w3.org/2000/svg" xmlns:xlink="http://www.w3.org/1999/xlink" x="0px" y="0px"
	 viewBox="0 0 96 96" style="enable-background:new 0 0 96 96;" xml:space="preserve">
<g>
	<defs>
		<path id="SVGID_1_" d="M70,22.1c2.2,0,3.9,1.7,3.9,3.9s-1.7,3.9-3.9,3.9s-3.9-1.7-3.9-3.9S67.8,22.1,70,22.1z M26,22.1
			c2.2,0,3.9,1.7,3.9,3.9s-1.7,3.9-3.9,3.9s-3.9-1.7-3.9-3.9S23.8,22.1,26,22.1z M48,45.5c-1.4,0-2.5,1.1-2.5,2.5s1.1,2.5,2.5,2.5
			s2.5-1.1,2.5-2.5S49.4,45.5,48,45.5z M79.2,44.1c2.2,0,3.9,1.7,3.9,3.9s-1.7,3.9-3.9,3.9c-2.2,0-3.9-1.7-3.9-3.9
			S77,44.1,79.2,44.1z M16.8,44.1c2.2,0,3.9,1.7,3.9,3.9s-1.7,3.9-3.9,3.9s-3.9-1.7-3.9-3.9S14.6,44.1,16.8,44.1z M47.9,16
			c1.5,0,2.8,1.2,2.9,2.7l0,0.2v21.3c2.2,0.9,3.9,2.6,4.8,4.6l0.1,0.3h7.9c1.7,0,2.9,1.3,2.9,3c0,1.5-1.2,2.8-2.7,2.9l-0.2,0h-7.9
			c-1.2,3.1-4.2,5.4-7.8,5.4c-1.1,0-2.1-0.2-3.1-0.7l-0.3-0.1l-7.8,7.8c-0.5,0.5-1.3,0.8-2,0.8c-0.8,0-1.5-0.2-2.1-0.8
			c-1.1-1.1-1.1-2.8-0.1-3.9l0.1-0.2l7.8-7.8c-0.5-1-0.8-2.2-0.8-3.4c0-3.5,2.2-6.4,5.2-7.7l0.2-0.1V18.9C45,17.3,46.3,16,47.9,16z
			 M70,66.1c2.2,0,3.9,1.7,3.9,3.9s-1.7,3.9-3.9,3.9s-3.9-1.7-3.9-3.9S67.8,66.1,70,66.1z M26,66.1c2.2,0,3.9,1.7,3.9,3.9
			s-1.7,3.9-3.9,3.9s-3.9-1.7-3.9-3.9S23.8,66.1,26,66.1z M48,75.3c2.2,0,3.9,1.7,3.9,3.9c0,2.2-1.7,3.9-3.9,3.9s-3.9-1.7-3.9-3.9
			C44.1,77,45.8,75.3,48,75.3z M48,6.3C25,6.3,6.3,25,6.3,48S25,89.7,48,89.7S89.7,71,89.7,48S71,6.3,48,6.3z M48,0.5
			c26.2,0,47.5,21.3,47.5,47.5S74.2,95.5,48,95.5S0.5,74.2,0.5,48S21.8,0.5,48,0.5z"/>
	</defs>
	<use xlink:href="#SVGID_1_"  style="overflow:visible;"/>
	<clipPath id="SVGID_2_">
		<use xlink:href="#SVGID_1_"  style="overflow:visible;"/>
	</clipPath>
</g>
</svg>
