<?xml version="1.0" encoding="utf-8"?>
<!-- Generator: Adobe Illustrator 23.0.1, SVG Export Plug-In . SVG Version: 6.00 Build 0)  -->
<svg version="1.1" id="Layer_1" xmlns="http://www.w3.org/2000/svg" xmlns:xlink="http://www.w3.org/1999/xlink" x="0px" y="0px"
	 viewBox="0 0 24 24" style="enable-background:new 0 0 24 24;" xml:space="preserve">
<title>Shape</title>
<desc>Created with Sketch.</desc>
<g id="Page-1">
	<g id="viber">
		<path id="Shape" d="M11.4,0C9.5,0,5.3,0.3,3,2.5C1.3,4.2,0.7,6.7,0.6,9.8c-0.1,3.1-0.1,9,5.5,10.5v2.4c0,0,0,1,0.6,1.2
			c0.8,0.2,1.2-0.5,2-1.3l1.4-1.6c3.9,0.3,6.8-0.4,7.1-0.5c0.8-0.2,5.2-0.8,5.9-6.7c0.7-6-0.4-9.8-2.3-11.6l0,0
			c-0.6-0.6-3-2.3-8.4-2.3C12.4,0,12,0,11.4,0z M11.5,1.7c0.5,0,0.9,0,0.9,0c4.5,0,6.7,1.4,7.2,1.8c1.7,1.4,2.5,4.9,1.9,9.9
			c-0.6,4.9-4.2,5.2-4.8,5.4c-0.3,0.1-2.9,0.7-6.2,0.5c0,0-2.4,2.9-3.2,3.7c-0.1,0.1-0.3,0.2-0.3,0.1c-0.1,0-0.2-0.2-0.2-0.4l0-4
			C2,17.5,2.3,12.5,2.4,9.9c0.1-2.6,0.5-4.7,2-6.2C6.3,1.9,9.8,1.7,11.5,1.7L11.5,1.7z M11.8,4.3c-0.1,0-0.2,0-0.2,0.1
			c-0.1,0.1-0.1,0.1-0.1,0.2c0,0.2,0.1,0.3,0.3,0.3c1.5,0,3,0.5,4,1.6c1.1,1.1,1.6,2.5,1.6,4.3c0,0.2,0.1,0.3,0.3,0.3v0
			c0.2,0,0.3-0.1,0.3-0.3c0.1-1.8-0.6-3.5-1.8-4.8C15.1,4.9,13.6,4.3,11.8,4.3L11.8,4.3z M7.9,5C7.7,5,7.4,5,7.3,5.1h0
			C6.8,5.3,6.5,5.6,6.1,6C5.8,6.4,5.7,6.7,5.6,7c0,0.2,0,0.4,0,0.5l0,0C6,8.5,6.4,9.3,6.9,10.1c0.6,1.2,1.4,2.2,2.3,3.2l0,0l0,0l0,0
			l0,0c1,0.9,2,1.7,3.2,2.3c1.3,0.7,2.1,1.1,2.6,1.2v0c0.1,0,0.3,0.1,0.4,0.1c0.4,0,0.8-0.2,1.1-0.5c0.4-0.3,0.7-0.7,0.9-1.1v0
			c0.2-0.4,0.1-0.8-0.2-1.1c-0.7-0.6-1.4-1.1-2.1-1.5c-0.5-0.3-1-0.1-1.2,0.2l-0.4,0.6c-0.2,0.3-0.6,0.2-0.6,0.2l0,0
			c-3.1-0.8-3.9-4-3.9-4s0-0.4,0.2-0.6l0.6-0.4c0.3-0.2,0.5-0.7,0.2-1.2C9.5,6.7,9,6,8.4,5.3C8.2,5.1,8.1,5,7.9,5L7.9,5z M12.3,5.9
			C12.2,5.9,12,6,12,6.2c0,0.2,0.1,0.3,0.3,0.3c1,0,2,0.4,2.7,1.2c0.6,0.7,1,1.6,0.9,2.6c0,0.2,0.1,0.3,0.3,0.3l0,0
			c0.1,0,0.2,0,0.2-0.1s0.1-0.1,0.1-0.2c0-1.2-0.3-2.2-1.1-3C14.7,6.4,13.7,6,12.3,5.9C12.4,5.9,12.4,5.9,12.3,5.9L12.3,5.9z
			 M12.8,7.5c-0.2,0-0.3,0.1-0.3,0.3c0,0.2,0.1,0.3,0.3,0.3c1,0.1,1.5,0.6,1.5,1.6c0,0.2,0.1,0.3,0.3,0.3h0c0.1,0,0.2,0,0.2-0.1
			c0.1-0.1,0.1-0.1,0.1-0.2C14.9,8.3,14.1,7.6,12.8,7.5C12.8,7.5,12.8,7.5,12.8,7.5L12.8,7.5z"/>
	</g>
</g>
</svg>
