<?xml version="1.0" encoding="utf-8"?>
<!-- Generator: Adobe Illustrator 23.0.1, SVG Export Plug-In . SVG Version: 6.00 Build 0)  -->
<svg version="1.1" id="Layer_1" xmlns="http://www.w3.org/2000/svg" xmlns:xlink="http://www.w3.org/1999/xlink" x="0px" y="0px"
	 viewBox="0 0 102 102" style="enable-background:new 0 0 102 102;" xml:space="preserve">
<g>
	<defs>
		<path id="SVGID_1_" d="M56.5,31.9c-0.5,0.6-1.6,2-3.2,5.1c-2.1,4-5,6.7-5.9,7.4c-1.1,0.9-1.2,1.7-1.3,2l0.1,0.3l-0.1,0v14.1
			c0,1.4,1.2,2.6,2.6,2.6h14.3c1.9,0,1.9-0.3,1.9-1.2h0V46.7c0-1.5-1.2-2.6-2.6-2.6h-9.6l2.3-4.4c1.2-2.4,2.2-5.9,1.6-7.5
			C56.7,32.1,56.6,32,56.5,31.9z M38,44.5c-0.5,0-1,0.4-1,1v17c0,0.5,0.4,1,1,1c0.5,0,1-0.4,1-1v-17C39,45,38.5,44.5,38,44.5z
			 M56.4,25.6c0.5,0,0.9,0.1,1.4,0.2c2.1,0.7,3.6,2.1,4.4,4.1c1.1,2.6,0.6,5.7-0.1,8.1h0.3c4.8,0,8.6,3.9,8.6,8.6v15.5
			c0,2.2-0.8,7.2-7.9,7.2H48.8c-2.2,0-4.2-0.8-5.7-2.2c-1.3,1.4-3.1,2.2-5.1,2.2c-3.8,0-7-3.1-7-7v-17c0-3.8,3.1-7,7-7
			c1.9,0,3.6,0.8,4.9,2c0.2-0.2,0.4-0.4,0.7-0.6c1.2-1.1,3.2-3.2,4.5-5.6C50.8,28.9,53.2,25.6,56.4,25.6z M51,7.5l-9,6.1
			c-0.6,0.4-1.2,0.6-1.9,0.5l-10.9-0.8l-4.7,9.8c-0.3,0.6-0.8,1.1-1.4,1.4l-9.8,4.7l0.8,10.9c0.1,0.7-0.1,1.4-0.5,1.9l-6.1,9l6.1,9
			c0.4,0.6,0.6,1.2,0.5,1.9l-0.8,10.9l9.8,4.7c0.6,0.3,1.1,0.8,1.4,1.4l4.7,9.8l10.9-0.8c0.1,0,0.2,0,0.2,0c0.6,0,1.2,0.2,1.7,0.5
			l9,6.1l9-6.1c0.6-0.4,1.2-0.6,1.9-0.5l10.9,0.8l4.7-9.8c0.3-0.6,0.8-1.1,1.4-1.4l9.8-4.7l-0.8-10.9c-0.1-0.7,0.1-1.4,0.5-1.9
			l6.1-9l-6.1-9c-0.4-0.6-0.6-1.2-0.5-1.9l0.8-10.9l-9.8-4.7c-0.6-0.3-1.1-0.8-1.4-1.4l-4.7-9.8L62,14.1c-0.7,0.1-1.4-0.1-1.9-0.5
			L51,7.5z M49.3,1.3c1-0.7,2.4-0.7,3.4,0l9.8,6.7l11.9-0.9c1.2-0.1,2.4,0.6,2.9,1.7l5.1,10.7l10.7,5.1c1.1,0.5,1.8,1.7,1.7,2.9
			L94,39.5l6.7,9.8c0.7,1,0.7,2.4,0,3.4L94,62.5l0.9,11.9c0.1,1.2-0.6,2.4-1.7,2.9l-10.7,5.1l-5.1,10.7c-0.5,1.1-1.7,1.8-2.9,1.7
			l-11.9-0.9l-9.8,6.7c-0.5,0.3-1.1,0.5-1.7,0.5s-1.2-0.2-1.7-0.5l-9.8-6.7l-11.9,0.9c-1.2,0.1-2.4-0.6-2.9-1.7l-5.1-10.7L8.9,77.3
			c-1.1-0.5-1.8-1.7-1.7-2.9l0.9-11.9l-6.7-9.8c-0.7-1-0.7-2.4,0-3.4l6.7-9.8L7.2,27.6c-0.1-1.2,0.6-2.4,1.7-2.9l10.7-5.1l5.1-10.7
			c0.5-1.1,1.7-1.8,2.9-1.7l11.9,0.9L49.3,1.3z"/>
	</defs>
	<clipPath id="SVGID_2_">
		<use xlink:href="#SVGID_1_"  style="overflow:visible;"/>
	</clipPath>
</g>
</svg>
