<?xml version="1.0" encoding="utf-8"?>
<!-- Generator: Adobe Illustrator 23.0.1, SVG Export Plug-In . SVG Version: 6.00 Build 0)  -->
<svg version="1.1" id="Layer_1" xmlns="http://www.w3.org/2000/svg" xmlns:xlink="http://www.w3.org/1999/xlink" x="0px" y="0px"
	 viewBox="0 0 72 70" style="enable-background:new 0 0 72 70;" xml:space="preserve">
<g>
	<defs>
		<path id="SVGID_1_" d="M30,14c2.2,0,4,1.8,4,4v7h7c2.2,0,4,1.8,4,4s-1.8,4-4,4h-7v8c0,2.2-1.8,4-4,4s-4-1.8-4-4v-8h-7
			c-2.2,0-4-1.8-4-4s1.8-4,4-4h7v-7C26,15.8,27.8,14,30,14z M29.9,8C18.2,8,8.8,17.5,8.8,29.1s9.5,21.1,21.1,21.1S51,40.7,51,29.1
			S41.6,8,29.9,8z M29.9,0C45.9,0,59,13.1,59,29.1c0,6.4-2.1,12.4-5.6,17.2l16.8,16.8c1.6,1.6,1.6,4.1,0,5.7
			c-0.8,0.8-1.8,1.2-2.8,1.2s-2-0.4-2.8-1.2L47.8,52c-4.9,3.9-11.1,6.2-17.9,6.2c-16,0-29.1-13.1-29.1-29.1S13.9,0,29.9,0z"/>
	</defs>
	<use xlink:href="#SVGID_1_"  style="overflow:visible;"/>
	<clipPath id="SVGID_2_">
		<use xlink:href="#SVGID_1_"  style="overflow:visible;"/>
	</clipPath>
</g>
</svg>
